<svg width="24" height="25" viewBox="0 0 24 25" fill="none" xmlns="http://www.w3.org/2000/svg">
<path d="M12 0.785645C10.4308 0.785645 9.23077 1.98564 9.23077 3.55488V9.09334C9.23077 10.6626 10.4308 11.8626 12 11.8626H17.5385L21.2308 15.5549V11.8626C22.8 11.8626 24 10.6626 24 9.09334V3.55488C24 1.98564 22.8 0.785645 21.2308 0.785645H12ZM15.8658 3.55488H17.4517L19.0098 9.09334H17.6252L17.2495 7.70872H15.8649L15.5197 9.09334H14.3077L15.8658 3.55488ZM16.6154 4.47795C16.5231 4.84718 16.4197 5.29765 16.3265 5.57457L16.068 6.78564H17.1637L16.9034 5.57364C16.7197 5.29764 16.6154 4.84718 16.6154 4.47795ZM2.76923 10.0164C1.2 10.0164 0 11.2164 0 12.7856V18.3241C0 19.8933 1.2 21.0933 2.76923 21.0933V24.7856L6.46154 21.0933H12C13.5692 21.0933 14.7692 19.8933 14.7692 18.3241V12.7856H12C10.2462 12.7856 8.856 11.5856 8.39446 10.0164H2.76923ZM7.00985 12.6989C8.57908 12.6989 9.31754 13.9912 9.31754 15.4681C9.31754 16.7604 8.87354 17.5801 8.13508 17.9493C8.50431 18.134 8.94185 18.2318 9.40339 18.3241L9.05815 19.2472C8.412 19.0626 7.74185 18.7746 7.09569 18.4967C7.00338 18.4044 6.84185 18.4109 6.74954 18.4109C5.64185 18.3186 4.61538 17.401 4.61538 15.5549C4.61538 13.9856 5.53292 12.6989 7.00985 12.6989ZM7.00985 13.7087C6.27138 13.7087 5.91323 14.5395 5.91323 15.5549C5.91323 16.6626 6.27138 17.401 7.00985 17.401C7.74831 17.401 8.13415 16.5703 8.13415 15.5549C8.13415 14.5395 7.74831 13.7087 7.00985 13.7087Z" fill="#009865"/>
</svg>
